<?xml version="1.0" standalone="no"?>
<!DOCTYPE svg PUBLIC "-//W3C//DTD SVG 20010904//EN"
 "http://www.w3.org/TR/2001/REC-SVG-20010904/DTD/svg10.dtd">
<svg version="1.0" xmlns="http://www.w3.org/2000/svg"
 width="512.000000pt" height="512.000000pt" viewBox="0 0 512.000000 512.000000"
 preserveAspectRatio="xMidYMid meet">

<g transform="translate(0.000000,512.000000) scale(0.100000,-0.100000)"
fill="#000000" stroke="none">
<path d="M2270 5111 c-76 -24 -159 -100 -205 -191 -33 -65 -59 -182 -51 -232
l6 -38 -147 -110 c-145 -109 -147 -110 -167 -92 -69 62 -232 148 -341 181 -38
11 -263 66 -500 122 -373 87 -439 100 -495 96 -111 -7 -207 -73 -257 -175
l-28 -57 -3 -539 -3 -538 -29 -30 c-48 -47 -52 -78 -48 -375 3 -308 3 -307 88
-350 l44 -23 1556 0 c1793 0 2084 7 2630 61 202 19 583 71 663 89 46 10 81 33
111 74 20 26 21 43 24 294 2 147 0 281 -3 299 -3 18 -22 49 -42 70 -24 24 -42
56 -50 88 -25 93 -90 182 -171 234 -26 17 -135 60 -242 97 -686 233 -1359 545
-2005 927 -93 56 -186 107 -205 113 -39 15 -92 16 -130 5z m224 -225 c465
-278 1020 -555 1511 -754 179 -73 286 -113 519 -193 132 -45 243 -90 263 -105
32 -24 93 -116 93 -141 0 -6 -23 -14 -52 -18 -59 -8 -98 -40 -98 -80 0 -27 40
-75 63 -75 13 0 113 16 155 25 l22 5 0 -244 c0 -215 -2 -245 -16 -250 -58 -22
-664 -94 -974 -116 -161 -11 -609 -30 -717 -30 l-63 0 0 244 0 243 38 7 c20 3
105 6 187 6 361 0 1054 54 1102 85 29 19 37 50 23 84 -19 47 -43 51 -187 36
-412 -45 -900 -65 -1648 -65 l-539 0 156 158 c191 192 203 213 203 342 0 123
-8 138 -181 332 -162 182 -189 230 -188 333 0 50 7 85 23 122 29 65 99 133
138 133 16 0 83 -34 167 -84z m-1655 -281 c483 -113 522 -125 625 -178 103
-53 130 -75 464 -376 l283 -254 -123 -124 -123 -123 -867 0 -868 0 0 84 0 83
108 5 c129 7 178 24 230 84 48 53 62 100 62 200 0 94 -27 163 -81 208 -56 47
-89 56 -209 56 l-111 0 3 164 c3 149 5 167 24 193 35 47 82 73 132 73 24 0
227 -43 451 -95z m1267 -160 c20 -27 88 -106 149 -175 62 -69 118 -136 125
-149 17 -33 16 -111 -3 -147 -8 -16 -26 -39 -39 -50 l-23 -22 -230 208 c-126
114 -230 212 -230 218 0 8 206 173 211 168 1 0 19 -23 40 -51z m-1650 -348
c20 -24 24 -39 24 -97 0 -58 -4 -73 -24 -97 -23 -27 -29 -28 -125 -31 l-101
-4 0 132 0 132 101 -4 c96 -4 103 -5 125 -31z m2594 -782 l0 -85 -1260 0
-1261 0 -24 -25 c-14 -13 -25 -31 -25 -39 0 -28 22 -64 47 -75 17 -8 379 -11
1273 -11 l1250 0 0 -85 0 -85 -1450 0 -1450 0 0 85 0 85 45 0 c99 0 144 60 94
124 -18 23 -28 26 -80 26 l-59 0 0 85 0 85 1450 0 1450 0 0 -85z"/>
</g>
</svg>
