<svg width="24" height="24" viewBox="0 0 24 24" fill="none" xmlns="http://www.w3.org/2000/svg">
<g clip-path="url(#clip0_21_4092)">
<path d="M23.8358 8.7942C23.6312 8.1431 23.2226 7.57511 22.6702 7.17423C22.1179 6.77335 21.4512 6.56087 20.7688 6.5682H16.3998L15.0728 2.4322C14.8641 1.78116 14.454 1.21321 13.9017 0.810264C13.3494 0.407315 12.6834 0.190186 11.9998 0.190186C11.3161 0.190186 10.6501 0.407315 10.0978 0.810264C9.5455 1.21321 9.13544 1.78116 8.92677 2.4322L7.59977 6.5682H3.23077C2.55051 6.56917 1.88796 6.78508 1.33775 7.1851C0.787534 7.58512 0.377806 8.14879 0.167087 8.79559C-0.0436323 9.44238 -0.0445649 10.1392 0.164422 10.7866C0.373409 11.4339 0.781626 11.9987 1.33077 12.4002L4.88677 15.0002L3.53477 19.1872C3.31628 19.8366 3.31351 20.5392 3.52687 21.1903C3.74024 21.8414 4.15831 22.4061 4.71877 22.8002C5.26962 23.207 5.93716 23.4249 6.62192 23.4215C7.30668 23.418 7.97201 23.1935 8.51877 22.7812L11.9998 20.2192L15.4818 22.7782C16.0316 23.1827 16.6956 23.4023 17.3781 23.4057C18.0607 23.409 18.7268 23.1958 19.2805 22.7967C19.8343 22.3976 20.2473 21.8332 20.4601 21.1847C20.6728 20.5361 20.6745 19.8368 20.4648 19.1872L19.1128 15.0002L22.6728 12.4002C23.2282 12.0037 23.6412 11.439 23.8506 10.7895C24.0601 10.1401 24.0549 9.44045 23.8358 8.7942ZM21.4928 10.7852L17.3488 13.8142C17.1786 13.9384 17.0519 14.1131 16.9869 14.3135C16.9219 14.5139 16.9218 14.7298 16.9868 14.9302L18.5618 19.8002C18.6415 20.0472 18.6408 20.3131 18.5598 20.5597C18.4789 20.8063 18.3218 21.0209 18.1112 21.1726C17.9006 21.3243 17.6473 21.4053 17.3878 21.404C17.1282 21.4026 16.8758 21.319 16.6668 21.1652L12.5918 18.1652C12.4201 18.0391 12.2127 17.9711 11.9998 17.9711C11.7868 17.9711 11.5794 18.0391 11.4078 18.1652L7.33277 21.1652C7.12385 21.3211 6.8707 21.4064 6.61003 21.4088C6.34936 21.4112 6.09471 21.3305 5.88299 21.1784C5.67128 21.0263 5.51351 20.8107 5.43256 20.5629C5.35161 20.3151 5.35168 20.048 5.43277 19.8002L7.01277 14.9302C7.07768 14.7298 7.07763 14.5139 7.01263 14.3135C6.94762 14.1131 6.82098 13.9384 6.65077 13.8142L2.50677 10.7852C2.29807 10.6324 2.143 10.4175 2.06371 10.1713C1.98441 9.92514 1.98495 9.66018 2.06525 9.4143C2.14555 9.16842 2.30149 8.9542 2.51081 8.80225C2.72012 8.6503 2.97211 8.56838 3.23077 8.5682H8.33077C8.54248 8.56819 8.74873 8.50099 8.91981 8.37627C9.0909 8.25156 9.21798 8.07576 9.28277 7.8742L10.8328 3.0432C10.9123 2.79598 11.0683 2.58039 11.2782 2.42745C11.4881 2.27451 11.7411 2.1921 12.0008 2.1921C12.2605 2.1921 12.5135 2.27451 12.7234 2.42745C12.9333 2.58039 13.0892 2.79598 13.1688 3.0432L14.7188 7.8742C14.7836 8.07576 14.9106 8.25156 15.0817 8.37627C15.2528 8.50099 15.459 8.56819 15.6708 8.5682H20.7708C21.0294 8.56838 21.2814 8.6503 21.4907 8.80225C21.7 8.9542 21.856 9.16842 21.9363 9.4143C22.0166 9.66018 22.0171 9.92514 21.9378 10.1713C21.8585 10.4175 21.7035 10.6324 21.4948 10.7852H21.4928Z" fill="#252525"/>
</g>
<defs>
<clipPath id="clip0_21_4092">
<rect width="24" height="24" fill="white"/>
</clipPath>
</defs>
</svg>
